HIERARCHY
ROOT hip
{
  OFFSET 251.32 80.1873 -18.5399
  CHANNELS 6 Xposition Yposition Zposition Zrotation Xrotation Yrotation
  JOINT abdomen
  {
    OFFSET 0 20.6881 -0.73152
    CHANNELS 3 Zrotation Xrotation Yrotation
    JOINT chest
    {
      OFFSET 0 11.7043 -0.48768
      CHANNELS 3 Zrotation Xrotation Yrotation
      JOINT neck
      {
        OFFSET 0 22.1894 -2.19456
        CHANNELS 3 Zrotation Xrotation Yrotation
        JOINT head
        {
          OFFSET -0.24384 7.07133 1.2192
          CHANNELS 3 Zrotation Xrotation Yrotation
          JOINT leftEye
          {
            OFFSET 4.14528 8.04674 8.04672
            CHANNELS 3 Zrotation Xrotation Yrotation
            End Site
            {
              OFFSET 1 0 0
            }
          }
          JOINT rightEye
          {
            OFFSET -3.6576 8.04674 8.04672
            CHANNELS 3 Zrotation Xrotation Yrotation
            End Site
            {
              OFFSET 1 0 0
            }
          }
        }
      }
      JOINT rCollar
      {
        OFFSET -2.68224 19.2634 -4.8768
        CHANNELS 3 Zrotation Xrotation Yrotation
        JOINT rShldr
        {
          OFFSET -8.77824 -1.95073 1.46304
          CHANNELS 3 Zrotation Xrotation Yrotation
          JOINT rForeArm
          {
            OFFSET -28.1742 -1.7115 0.48768
            CHANNELS 3 Zrotation Xrotation Yrotation
            JOINT rHand
            {
              OFFSET -22.5879 0.773209 7.07136
              CHANNELS 3 Zrotation Xrotation Yrotation
              JOINT rThumb1
              {
                OFFSET -1.2192 -0.487915 3.41376
                CHANNELS 3 Zrotation Xrotation Yrotation
                JOINT rThumb2
                {
                  OFFSET -3.37035 -0.52449 3.41376
                  CHANNELS 3 Zrotation Xrotation Yrotation
                  End Site
                  {
                    OFFSET -1.78271 -1.18214 1.43049
                  }
                }
              }
              JOINT rIndex1
              {
                OFFSET -7.75947 0.938293 5.60832
                CHANNELS 3 Zrotation Xrotation Yrotation
                JOINT rIndex2
                {
                  OFFSET -2.54057 -0.884171 1.56538
                  CHANNELS 3 Zrotation Xrotation Yrotation
                  End Site
                  {
                    OFFSET -1.62519 -0.234802 1.16502
                  }
                }
              }
              JOINT rMid1
              {
                OFFSET -8.24714 1.18213 3.41376
                CHANNELS 3 Zrotation Xrotation Yrotation
                JOINT rMid2
                {
                  OFFSET -3.10165 -0.590103 1.0647
                  CHANNELS 3 Zrotation Xrotation Yrotation
                  End Site
                  {
                    OFFSET -2.48547 -0.328903 0.83742
                  }
                }
              }
              JOINT rRing1
              {
                OFFSET -8.82822 0.546677 1.51678
                CHANNELS 3 Zrotation Xrotation Yrotation
                JOINT rRing2
                {
                  OFFSET -2.60934 -0.819778 -0.0198488
                  CHANNELS 3 Zrotation Xrotation Yrotation
                  End Site
                  {
                    OFFSET -2.33842 -0.294052 0.168128
                  }
                }
              }
              JOINT rPinky1
              {
                OFFSET -8.27202 -0.0477905 -0.4584
                CHANNELS 3 Zrotation Xrotation Yrotation
                JOINT rPinky2
                {
                  OFFSET -1.82734 -0.647385 -0.700984
                  CHANNELS 3 Zrotation Xrotation Yrotation
                  End Site
                  {
                    OFFSET -1.69225 -0.51767 -0.607171
                  }
                }
              }
            }
          }
        }
      }
      JOINT lCollar
      {
        OFFSET 2.68224 19.2634 -4.8768
        CHANNELS 3 Zrotation Xrotation Yrotation
        JOINT lShldr
        {
          OFFSET 8.77824 -1.95073 1.46304
          CHANNELS 3 Zrotation Xrotation Yrotation
          JOINT lForeArm
          {
            OFFSET 28.1742 -1.7115 0.48768
            CHANNELS 3 Zrotation Xrotation Yrotation
            JOINT lHand
            {
              OFFSET 22.5879 0.773209 7.07136
              CHANNELS 3 Zrotation Xrotation Yrotation
              JOINT lThumb1
              {
                OFFSET 1.2192 -0.487915 3.41376
                CHANNELS 3 Zrotation Xrotation Yrotation
                JOINT lThumb2
                {
                  OFFSET 3.37035 -0.52449 3.41376
                  CHANNELS 3 Zrotation Xrotation Yrotation
                  End Site
                  {
                    OFFSET 1.78271 -1.18214 1.43049
                  }
                }
              }
              JOINT lIndex1
              {
                OFFSET 7.75947 0.938293 5.60832
                CHANNELS 3 Zrotation Xrotation Yrotation
                JOINT lIndex2
                {
                  OFFSET 2.54057 -0.884171 1.56538
                  CHANNELS 3 Zrotation Xrotation Yrotation
                  End Site
                  {
                    OFFSET 1.62519 -0.234802 1.16502
                  }
                }
              }
              JOINT lMid1
              {
                OFFSET 8.24714 1.18213 3.41376
                CHANNELS 3 Zrotation Xrotation Yrotation
                JOINT lMid2
                {
                  OFFSET 3.10165 -0.590103 1.0647
                  CHANNELS 3 Zrotation Xrotation Yrotation
                  End Site
                  {
                    OFFSET 2.48547 -0.328903 0.83742
                  }
                }
              }
              JOINT lRing1
              {
                OFFSET 8.82822 0.546677 1.51678
                CHANNELS 3 Zrotation Xrotation Yrotation
                JOINT lRing2
                {
                  OFFSET 2.60934 -0.819778 -0.0198488
                  CHANNELS 3 Zrotation Xrotation Yrotation
                  End Site
                  {
                    OFFSET 2.33842 -0.294052 0.168128
                  }
                }
              }
              JOINT lPinky1
              {
                OFFSET 8.27202 -0.0477905 -0.4584
                CHANNELS 3 Zrotation Xrotation Yrotation
                JOINT lPinky2
                {
                  OFFSET 1.82734 -0.647385 -0.700984
                  CHANNELS 3 Zrotation Xrotation Yrotation
                  End Site
                  {
                    OFFSET 1.69225 -0.51767 -0.607171
                  }
                }
              }
            }
          }
        }
      }
    }
  }
  JOINT rButtock
  {
    OFFSET -8.77824 4.35084 1.2192
    CHANNELS 3 Zrotation Xrotation Yrotation
    JOINT rThigh
    {
      OFFSET 0 -1.70687 -2.19456
      CHANNELS 3 Zrotation Xrotation Yrotation
      JOINT rShin
      {
        OFFSET 0 -36.8199 0.73152
        CHANNELS 3 Zrotation Xrotation Yrotation
        JOINT rFoot
        {
          OFFSET 0.73152 -45.1104 -5.12064
          CHANNELS 3 Zrotation Xrotation Yrotation
          End Site
          {
            OFFSET -1.1221 -3.69964 12.103
          }
        }
      }
    }
  }
  JOINT lButtock
  {
    OFFSET 8.77824 4.35084 1.2192
    CHANNELS 3 Zrotation Xrotation Yrotation
    JOINT lThigh
    {
      OFFSET 0 -1.70687 -2.19456
      CHANNELS 3 Zrotation Xrotation Yrotation
      JOINT lShin
      {
        OFFSET 0 -36.8199 0.73152
        CHANNELS 3 Zrotation Xrotation Yrotation
        JOINT lFoot
        {
          OFFSET -0.73152 -45.1104 -5.12064
          CHANNELS 3 Zrotation Xrotation Yrotation
          End Site
          {
            OFFSET 1.1221 -3.69964 12.103
          }
        }
      }
    }
  }
}
MOTION
Frames:	5
Frame Time:	0.00833333
50.5195 82.1661 -10.1107 3.74419 -6.17024 -105.735 -0.436262 19.1864 11.5369 -0.931582 1.44489 3.07408 -11.2312 16.4682 -14.1797 44.5224 -48.2765 -8.7641 -0 0 0 -0 0 0 1.22882e-013 4.88016e-013 3.10737e-014 73.3701 31.0368 8.86729 -13.7219 -6.72979 25.0004 -0.216604 13.2545 1.89674 -1.1244e-009 -2.39121e-010 -5.84878e-010 -1.94819e-009 -4.14396e-010 -9.99204e-010 -1.12438e-009 -2.39116e-010 -5.84895e-010 7.73091 5.47488 0.417314 -1.1244e-009 -2.39118e-010 -5.8488e-010 2.90554 0.965183 0.102902 -1.1244e-009 -2.39119e-010 -5.84873e-010 10.2786 0.731801 0.0259123 -1.12441e-009 -2.39116e-010 -5.84863e-010 2.22167 -0.733487 -0.20892 1.22645e-013 4.8804e-013 3.07996e-014 -92.6744 42.9866 6.4126 28.2379 -38.6904 -81.7304 0.033462 -5.33696 0.752063 1.1403e-010 -3.56439e-010 1.30078e-010 1.88398e-010 -6.1277e-010 2.26198e-010 1.14026e-010 -3.56433e-010 1.30094e-010 -7.73091 5.47488 -0.417314 1.14033e-010 -3.56438e-010 1.3008e-010 -2.90554 0.965183 -0.102902 1.14023e-010 -3.56438e-010 1.30075e-010 -10.2786 0.731801 -0.0259123 1.14034e-010 -3.56436e-010 1.30075e-010 -2.22167 -0.733487 0.20892 -2.03217e-016 0 -3.88251e-019 -5.49481 0.46556 -23.597 -159.315 86.4436 158.673 -1.43812 12.8217 -11.2278 2.03217e-016 0 3.88251e-019 -2.54735 -43.9313 2.50534 0.844232 47.4746 0.828432 -0.605115 -2.28199 -2.30159 
53.7369 81.1789 -10.4908 3.54474 -5.13618 -106.257 -1.74788 20.0214 10.7367 -0.706973 1.19128 2.76286 -11.3709 16.4578 -13.9416 45.5861 -47.9745 -7.84426 -0 0 0 -0 0 0 7.64606e-014 2.47278e-013 -6.3462e-014 74.5501 29.3375 8.0545 -13.472 -6.53614 24.4976 -0.302566 15.4638 2.22821 2.51814e-010 2.46779e-010 -5.9921e-010 4.27217e-010 4.22562e-010 -1.03754e-009 2.51839e-010 2.46784e-010 -5.99226e-010 7.73091 5.47488 0.417314 2.5181e-010 2.46782e-010 -5.9921e-010 2.90554 0.965183 0.102902 2.51814e-010 2.46781e-010 -5.99204e-010 10.2786 0.731801 0.0259123 2.51804e-010 2.46784e-010 -5.99191e-010 2.22167 -0.733487 -0.20892 7.6211e-014 2.47297e-013 -6.37105e-014 -89.0128 43.2126 -0.749672 28.3428 -37.8786 -80.198 0.0183078 -3.85991 0.543305 2.63814e-010 -9.88885e-010 -1.1379e-009 4.57814e-010 -1.70376e-009 -1.96471e-009 2.6381e-010 -9.88882e-010 -1.13789e-009 -7.73091 5.47488 -0.417314 2.63818e-010 -9.88884e-010 -1.1379e-009 -2.90554 0.965183 -0.102902 2.63807e-010 -9.88885e-010 -1.1379e-009 -10.2786 0.731801 -0.0259123 2.63818e-010 -9.88883e-010 -1.1379e-009 -2.22167 -0.733487 0.20892 -2.03217e-016 0 -3.88251e-019 -9.44937 -3.24663 -24.7421 -171.32 80.9162 170.62 -1.61427 12.3316 -10.2049 2.03217e-016 0 3.88251e-019 -4.38209 -42.7863 0.139759 0.964045 50.7066 0.764534 -0.37853 -6.21999 -0.275317 
56.6876 80.1138 -10.9007 3.68749 -3.305 -106.772 -4.31559 20.7432 10.2276 -0.186104 1.01142 2.47048 -11.5636 16.3601 -13.7591 46.3295 -47.6775 -7.20345 -0 0 0 -0 0 0 1.40171e-013 -8.01978e-014 -3.14168e-013 75.6453 27.4152 7.36353 -13.1396 -6.2866 23.8278 -0.375767 17.1926 2.49151 1.42734e-009 -4.44648e-010 -7.82621e-010 2.45171e-009 -7.77501e-010 -1.3723e-009 1.42736e-009 -4.44645e-010 -7.82636e-010 7.73091 5.47488 0.417314 1.42734e-009 -4.44648e-010 -7.82621e-010 2.90554 0.965183 0.102902 1.42734e-009 -4.44648e-010 -7.82616e-010 10.2786 0.731801 0.0259123 1.42733e-009 -4.44646e-010 -7.82603e-010 2.22167 -0.733487 -0.20892 1.3988e-013 -8.01796e-014 -3.14442e-013 -84.834 43.0159 -8.07638 28.4541 -36.8515 -78.2078 0.00627645 -2.30134 0.323895 4.984e-010 -6.50548e-010 -8.24884e-010 8.67657e-010 -1.11879e-009 -1.42281e-009 4.98395e-010 -6.50546e-010 -8.24873e-010 -7.73091 5.47488 -0.417314 4.98402e-010 -6.50548e-010 -8.24886e-010 -2.90554 0.965183 -0.102902 4.98392e-010 -6.50548e-010 -8.24888e-010 -10.2786 0.731801 -0.0259123 4.98403e-010 -6.50546e-010 -8.24889e-010 -2.22167 -0.733487 0.20892 -2.03217e-016 0 -3.88251e-019 -14.5304 -7.26304 -25.974 -173.932 75.8656 173.144 -1.48981 12.3009 -8.17497 2.03217e-016 0 3.88251e-019 -6.45678 -41.1413 -0.910623 1.04306 52.7399 0.693064 -0.134692 -9.23157 0.722745 
59.9394 79.6445 -11.3636 4.10125 -0.888718 -107.054 -7.77815 21.3859 9.90842 0.545818 0.875188 2.18683 -11.8301 16.196 -13.6124 46.9233 -47.3627 -6.72288 -0 0 0 -0 0 0 2.65634e-013 -5.00923e-013 -6.73032e-013 76.6095 25.3517 6.81045 -12.7191 -5.9751 22.9938 -0.45651 18.9247 2.76015 2.62047e-009 -1.86911e-009 -1.04739e-009 4.50411e-009 -3.2463e-009 -1.852e-009 2.62049e-009 -1.86911e-009 -1.0474e-009 7.73091 5.47488 0.417314 2.62047e-009 -1.86911e-009 -1.04739e-009 2.90554 0.965183 0.102902 2.62048e-009 -1.86911e-009 -1.04738e-009 10.2786 0.731801 0.0259123 2.62046e-009 -1.86911e-009 -1.04737e-009 2.22167 -0.733487 -0.20892 2.65282e-013 -5.00904e-013 -6.73361e-013 -80.177 42.4341 -15.5745 28.4961 -35.5493 -75.9286 -0.000639954 -0.700939 0.0988038 7.88941e-010 2.91469e-010 3.8768e-010 1.37136e-009 5.08388e-010 6.73962e-010 7.88935e-010 2.9147e-010 3.87692e-010 -7.73091 5.47488 -0.417314 7.88943e-010 2.91467e-010 3.87676e-010 -2.90554 0.965183 -0.102902 7.88931e-010 2.91468e-010 3.87678e-010 -10.2786 0.731801 -0.0259123 7.88944e-010 2.91469e-010 3.87674e-010 -2.22167 -0.733487 0.20892 -2.03217e-016 0 -3.88251e-019 -20.5301 -11.546 -27.3343 -175.054 71.2443 174.154 -1.18858 12.5327 -5.33164 2.03217e-016 0 3.88251e-019 -8.78988 -39.2003 -1.27788 1.10292 54.0875 0.601799 0.0515881 -11.8353 1.14485 
63.3474 79.4503 -11.7285 4.60324 1.56347 -106.943 -11.2884 21.8698 9.58327 1.2989 0.744612 1.90216 -12.1371 15.9846 -13.4215 47.2638 -46.9869 -6.29067 -0 0 0 -0 0 0 3.82395e-013 -8.66796e-013 -9.87917e-013 77.4049 23.4135 6.33961 -12.3106 -5.67504 22.2012 -0.538081 20.4524 3.00285 3.51945e-009 -3.24398e-009 -1.29443e-009 6.04912e-009 -5.62865e-009 -2.29739e-009 3.51946e-009 -3.24398e-009 -1.29444e-009 7.73091 5.47488 0.417314 3.51945e-009 -3.24398e-009 -1.29443e-009 2.90554 0.965183 0.102902 3.51946e-009 -3.24398e-009 -1.29442e-009 10.2786 0.731801 0.0259123 3.51944e-009 -3.24398e-009 -1.29442e-009 2.22167 -0.733487 -0.20892 3.81993e-013 -8.66776e-013 -9.88298e-013 -75.6105 41.2019 -22.4226 28.4318 -34.1529 -73.7441 -0.000214414 0.544622 -0.0764174 1.02048e-009 1.26473e-009 1.69402e-009 1.77155e-009 2.18914e-009 2.9325e-009 1.02047e-009 1.26473e-009 1.69403e-009 -7.73091 5.47488 -0.417314 1.02048e-009 1.26473e-009 1.69401e-009 -2.90554 0.965183 -0.102902 1.02046e-009 1.26473e-009 1.69402e-009 -10.2786 0.731801 -0.0259123 1.02048e-009 1.26473e-009 1.69401e-009 -2.22167 -0.733487 0.20892 -2.03217e-016 0 -3.88251e-019 -26.2856 -15.9825 -28.5423 -175.669 67.341 174.686 -0.851401 12.7964 -2.52927 2.03217e-016 0 3.88251e-019 -10.7468 -37.049 -1.0242 1.13927 54.9774 0.481532 0.154808 -14.0681 1.15814 
